

<svg  version="1.1" xmlns="http://www.w3.org/2000/svg"  >

    <symbol viewBox="0 0 1024 1024" id = 'title' >
            <path d="M482.5 586.7c-2.9 0-5.9-1.1-8.2-3.2-5-4.6-5.3-12.3-0.8-17.2l160-174.7c4.6-5 12.3-5.3 17.2-0.8 5 4.6 5.3 12.3 0.8 17.2l-160 174.7c-2.4 2.7-5.7 4-9 4z" fill="#d4237a" p-id="1154"></path><path d="M481.6 588.2c-4.2 0-8.3-2.2-10.5-6l-151.4-259c-3.4-5.8-1.4-13.3 4.4-16.7 5.8-3.4 13.3-1.4 16.7 4.4l151.4 258.9c3.4 5.8 1.4 13.3-4.4 16.7-2 1.1-4.1 1.7-6.2 1.7zM666.2 427.9c-38 0-68.9-30.9-68.9-68.9s30.9-68.9 68.9-68.9 68.9 30.9 68.9 68.9-30.9 68.9-68.9 68.9z m0-101.2c-17.8 0-32.3 14.5-32.3 32.3s14.5 32.3 32.3 32.3 32.3-14.5 32.3-32.3-14.5-32.3-32.3-32.3z" fill="#d4237a" p-id="1155"></path><path d="M305.3 360.3c-54.9 0-101.1-42.9-104.4-98.4-1.7-27.9 7.6-54.8 26.2-75.7 18.5-20.9 44.1-33.4 72.1-35 57.7-3.3 107.3 40.6 110.8 98.2s-40.6 107.3-98.2 110.8c-2.3 0.1-4.4 0.1-6.5 0.1z m0.1-148.3c-0.9 0-1.8 0-2.7 0.1-11.6 0.7-22.3 5.9-30.1 14.6-7.7 8.7-11.6 19.9-10.9 31.6 1.5 24 22.3 42.5 46.2 41 11.6-0.7 22.3-5.9 30.1-14.6 7.7-8.7 11.6-19.9 10.9-31.6-0.7-11.6-5.9-22.3-14.6-30.1-8.1-7.2-18.2-11-28.9-11zM232.3 744.9c-4 0-7.9-2-10.3-5.6-3.7-5.7-2-13.2 3.6-16.9l249.1-160.7c5.7-3.6 13.2-2 16.9 3.6 3.7 5.7 2 13.2-3.6 16.9L238.9 742.9c-2 1.3-4.3 2-6.6 2zM559.7 812.5c-5.2 0-10.1-3.4-11.7-8.6l-53.7-176c-2-6.4 1.7-13.3 8.1-15.2 6.4-2 13.3 1.7 15.2 8.1l53.7 176c2 6.4-1.7 13.3-8.1 15.2-1.1 0.4-2.3 0.5-3.5 0.5z" fill="#d4237a"></path><path d="M559.585273 890.86256a49 49 0 1 0 44.775819-87.172966 49 49 0 1 0-44.775819 87.172966Z" fill="#d4237a" p-id="1157"></path><path d="M778.7 667.9c-1.1 0-2.2-0.1-3.2-0.4l-307-84.2c-6.5-1.8-10.3-8.5-8.5-15 1.8-6.5 8.5-10.3 15-8.5L782 644c6.5 1.8 10.3 8.5 8.5 15-1.5 5.4-6.5 8.9-11.8 8.9z" fill="#d4237a" p-id="1158"></path><path d="M482.4 576.5m-109.6 0a109.6 109.6 0 1 0 219.2 0 109.6 109.6 0 1 0-219.2 0Z" fill="#d4237a" p-id="1159"></path><path d="M844.9 772.6c-27.5 0-53.6-10.3-73.8-29.2-21.1-19.7-33.2-46.5-34.1-75.3-0.9-28.8 9.4-56.3 29.1-77.4 19.7-21.1 46.5-33.2 75.3-34.1 29-1 56.3 9.4 77.4 29.1 21.1 19.7 33.2 46.5 34.1 75.3 1.9 59.6-44.9 109.6-104.5 111.5-1.1 0-2.3 0.1-3.5 0.1z m0.1-155.2h-1.6c-12.6 0.4-24.2 5.7-32.8 14.9-8.6 9.2-13.1 21.1-12.7 33.7 0.4 12.6 5.7 24.2 14.9 32.8 9.2 8.6 21.1 13.1 33.7 12.7 25.9-0.9 46.3-22.6 45.5-48.6-0.4-12.6-5.7-24.2-14.9-32.8-8.8-8.2-20.1-12.7-32.1-12.7z" fill="#d4237a" p-id="1160"></path><path d="M177.3 882.4c-27.5 0-53.6-10.3-73.8-29.2-21.1-19.7-33.2-46.5-34.1-75.3-0.9-28.8 9.4-56.3 29.1-77.4 19.7-21.1 46.5-33.2 75.3-34.1 59.7-1.8 109.6 44.9 111.5 104.5 1.9 59.6-44.9 109.6-104.5 111.5h-3.5z m0.2-155.1h-1.6c-12.6 0.4-24.2 5.7-32.8 14.9s-13.1 21.1-12.7 33.7 5.7 24.2 14.9 32.8c9.2 8.6 21.2 13.1 33.7 12.7 25.9-0.9 46.3-22.6 45.5-48.6-0.4-12.6-5.7-24.2-14.9-32.8-8.8-8.2-20.2-12.7-32.1-12.7z" fill="#d4237a" p-id="1161"></path>
    </symbol>

    <symbol viewBox="0 0 1024 1024" id = 'enlarge' >
        <path d="M853.333333 0h-682.666666C75.093333 0 0 75.093333 0 170.666667v682.666666C0 948.906667 75.093333 1024 170.666667 1024h682.666666c95.573333 0 170.666667-75.093333 170.666667-170.666667v-682.666666C1024 75.093333 948.906667 0 853.333333 0zM955.733333 853.333333c0 54.613333-47.786667 102.4-102.4 102.4h-682.666666c-54.613333 0-102.4-47.786667-102.4-102.4v-682.666666C68.266667 116.053333 116.053333 68.266667 170.666667 68.266667h682.666666c54.613333 0 102.4 47.786667 102.4 102.4v682.666666z" ></path><path d="M402.773333 573.44L204.8 771.413333V648.533333c0-20.48-13.653333-34.133333-34.133333-34.133333s-34.133333 13.653333-34.133334 34.133333v204.8c0 20.48 13.653333 34.133333 34.133334 34.133334h204.8c20.48 0 34.133333-13.653333 34.133333-34.133334s-13.653333-34.133333-34.133333-34.133333H252.586667l197.973333-197.973333c13.653333-13.653333 13.653333-34.133333 0-47.786667-13.653333-13.653333-34.133333-13.653333-47.786667 0zM853.333333 136.533333h-204.8c-20.48 0-34.133333 13.653333-34.133333 34.133334s13.653333 34.133333 34.133333 34.133333h122.88L573.44 402.773333c-13.653333 13.653333-13.653333 34.133333 0 47.786667 13.653333 13.653333 34.133333 13.653333 47.786667 0L819.2 252.586667v122.88c0 20.48 13.653333 34.133333 34.133333 34.133333s34.133333-13.653333 34.133334-34.133333v-204.8c0-20.48-13.653333-34.133333-34.133334-34.133334z"></path>
    </symbol>

    <symbol viewBox="0 0 1024 1024" id = 'close' >
    <path d="M511.998966 1023.99998c-282.766789 0-511.998966-229.234225-511.998966-512.003062C0 229.230129 229.232177 0 511.998966 0c282.768837 0 512.001014 229.230129 512.001014 511.996918C1023.99998 794.765755 794.767803 1023.99998 511.998966 1023.99998zM511.998966 64.001919c-247.420428 0-447.999095 200.576619-447.999095 447.997047 0 247.422476 200.576619 447.999095 447.999095 447.999095 247.424524 0 448.001143-200.576619 448.001143-447.999095C960.000109 264.57649 759.421442 64.001919 511.998966 64.001919zM557.433754 512.179189l135.58347 135.581422c12.496871 12.498919 12.496871 32.757694 0 45.256613-12.496871 12.498919-32.757694 12.498919-45.254565 0l-135.585518-135.585518-136.507116 136.507116c-12.597223 12.591079-33.015741 12.591079-45.610916 0-12.595175-12.595175-12.595175-33.013693 0-45.608868l136.509164-136.509164-135.585518-135.585518c-12.498919-12.496871-12.498919-32.757694 0-45.252517 12.496871-12.500967 32.755646-12.500967 45.254565 0l135.587566 135.585518 137.51473-137.51473c12.593127-12.597223 33.015741-12.597223 45.610916 0 12.593127 12.593127 12.593127 33.015741 0 45.60682L557.433754 512.179189z" p-id="2067"></path>
    </symbol>

</svg>